<svg width="80" height="280" viewBox="0 0 58 380" fill="none" xmlns="http://www.w3.org/2000/svg">
<g style="mix-blend-mode:screen">
<path d="M29.772 4.5C25.8136 8.87511 16.0199 20.071 7.97656 28.6682C6.19475 30.5727 5.16656 32.1559 6.07751 33.206C13.5186 41.7843 29.4039 36.5822 37.9718 40.7079C43.9573 43.59 25.3695 49.242 16.9729 64.1571C13.2372 70.7929 35.3258 74.3485 42.9802 80.1433C44.1178 81.0045 42.9275 83.136 40.6094 84.3425C28.9201 90.4263 21.0482 95.2136 16.8266 101.391C15.113 103.898 15.6222 105.934 16.7606 107.172C22.2495 113.146 31.965 116.419 40.2792 119.816C42.1546 120.582 43.8408 121.185 43.3226 122.179C39.0713 130.335 30.4194 134.116 28.1459 139.961C26.7487 143.553 36.1425 145.618 46.4913 150.261C53.2423 153.289 32.1262 161.495 21.9547 177.25C20.1792 180 23.9459 181.25 26.8921 181.658C37.76 183.162 44.838 184.262 47.2141 185.657C47.5906 185.878 47.6567 186.359 47.4088 186.718C43.0353 193.06 18.7621 213.625 13.4908 218.06C12.9786 218.49 13.0416 219.279 13.5997 219.648L44.557 240.145C45.0346 240.461 45.1567 241.089 44.7518 241.495C38.3454 247.905 2.31779 270.892 5.99601 271.407C14.3553 272.579 33.0599 288.813 38.0523 293.261C38.6202 293.767 38.4219 294.686 37.7073 294.946C32.1352 296.979 13.4254 304.264 5.99601 312.977C-4.30605 325.058 41.8272 324.323 50.6173 330.128C62.592 338.037 23.0918 339.735 10.9494 351.476C8.58191 353.766 22.2169 355.528 37.9291 359.403C42.3841 360.502 47.3569 363.566 48.2941 365.584C48.4575 365.935 48.2281 366.303 47.8752 366.464C41.9891 369.146 33.9674 370.695 29.77 372.052C27.7242 372.778 25.9921 373.533 21.5972 375.286" stroke="#2EA5F0" stroke-width="9" stroke-linecap="round"/>
</g>
</svg>
